<?xml version="1.0" standalone="no"?>
<!DOCTYPE svg PUBLIC "-//W3C//DTD SVG 20010904//EN"
 "http://www.w3.org/TR/2001/REC-SVG-20010904/DTD/svg10.dtd">
<svg version="1.0" xmlns="http://www.w3.org/2000/svg"
 width="962.000000pt" height="981.000000pt" viewBox="0 0 962.000000 981.000000"
 preserveAspectRatio="xMidYMid meet">

<g transform="translate(0.000000,981.000000) scale(0.100000,-0.100000)"
fill="#000000" stroke="none">
<path d="M4355 9799 c-1149 -88 -2187 -566 -2993 -1377 -744 -750 -1210 -1727
-1327 -2783 -35 -313 -30 -770 11 -1094 133 -1046 619 -2015 1381 -2755 588
-572 1314 -980 2098 -1178 172 -44 333 -77 339 -71 2 2 0 47 -6 99 -24 244 51
571 188 815 156 277 405 528 674 677 233 130 455 191 697 192 l143 1 0 626 0
626 -86 -43 c-240 -120 -509 -183 -784 -184 -216 0 -372 24 -570 90 -872 287
-1384 1191 -1184 2089 155 692 707 1227 1409 1365 584 115 1200 -80 1615 -510
260 -270 421 -585 482 -943 12 -69 22 -127 24 -129 1 -2 219 55 485 127 266
71 891 238 1389 371 498 133 909 246 914 251 12 11 -60 304 -125 506 -327
1013 -997 1892 -1889 2478 -613 402 -1293 648 -2036 735 -206 24 -652 34 -849
19z m225 -313 c0 -3 70 -496 155 -1097 85 -601 154 -1093 152 -1094 -6 -5
-338 -47 -341 -44 -1 2 -72 495 -157 1096 l-155 1092 40 6 c23 4 95 15 161 25
140 21 145 21 145 16z m-720 -205 c6 -38 85 -498 174 -1023 l162 -953 -25 -7
c-14 -3 -71 -14 -126 -23 -176 -28 -395 -112 -535 -204 -71 -46 -201 -171
-239 -227 -21 -33 -31 -41 -39 -31 -13 16 -1122 1836 -1122 1841 0 7 157 124
260 193 383 257 819 433 1195 482 128 17 136 18 212 20 l71 1 12 -69z"/>
<path d="M4456 6385 c-452 -85 -836 -420 -975 -849 -40 -126 -49 -166 -61
-292 -40 -426 152 -856 498 -1117 169 -127 360 -209 567 -243 152 -25 354 -15
508 25 187 47 413 168 535 284 l32 31 0 463 0 463 158 0 c86 0 174 5 195 11
l38 10 -6 67 c-30 300 -147 559 -349 770 -174 182 -364 294 -608 358 -89 23
-128 27 -278 30 -126 2 -197 -1 -254 -11z m400 -899 c83 -42 139 -98 181 -185
25 -51 28 -66 28 -166 0 -104 -2 -113 -32 -170 -102 -193 -323 -271 -517 -182
-194 89 -281 331 -187 521 100 202 327 280 527 182z"/>
<path d="M8935 5610 c-1681 -453 -2983 -800 -3003 -800 l-22 0 0 -1491 0
-1490 -27 19 c-225 157 -559 175 -863 45 -651 -279 -1007 -1046 -719 -1549
117 -205 358 -334 622 -334 533 0 1057 431 1215 1000 l27 95 5 1374 5 1374
1560 418 c858 230 1572 421 1588 424 l27 7 0 -1131 0 -1131 -52 34 c-134 84
-278 120 -458 113 -156 -6 -282 -37 -424 -105 -395 -189 -672 -535 -757 -947
-20 -93 -17 -276 5 -370 67 -289 265 -478 556 -531 383 -69 849 146 1136 525
83 109 185 315 221 446 l28 100 3 2043 c1 1123 -1 2042 -5 2041 -5 0 -305 -81
-668 -179z"/>
<path d="M7753 3917 l-1233 -332 -2 -1370 c-2 -753 -2 -1371 -2 -1373 4 -7
236 104 369 175 136 74 363 211 396 240 12 10 16 25 12 53 -8 61 16 265 47
385 150 594 671 1093 1268 1215 55 11 113 20 129 20 63 0 67 5 146 168 131
272 117 189 117 703 0 247 -3 449 -7 448 -5 -1 -563 -150 -1240 -332z"/>
</g>
</svg>
